<svg version="1.1" xmlns="http://www.w3.org/2000/svg" xmlns:xlink="http://www.w3.org/1999/xlink" width="813" height="606"><defs><clipPath id="onMomnWEXvmN"><path fill="none" stroke="none" d=" M 0 0 L 813 0 L 813 606 L 0 606 L 0 0 Z"/></clipPath></defs><g transform="scale(1,1)" clip-path="url(#onMomnWEXvmN)"><g><rect fill="rgb(255,255,255)" stroke="none" x="0" y="0" width="813" height="606" fill-opacity="1"/><path fill="none" stroke="rgb(192,192,192)" paint-order="fill stroke markers" d=" M 217.5 0.5 L 217.5 561.5 M 387.5 0.5 L 387.5 561.5 M 557.5 0.5 L 557.5 561.5 M 727.5 0.5 L 727.5 561.5" stroke-opacity="1" stroke-linejoin="round" stroke-miterlimit="10" stroke-dasharray="1,3"/><path fill="none" stroke="rgb(192,192,192)" paint-order="fill stroke markers" d="" stroke-opacity="0.23529411764705882" stroke-linejoin="round" stroke-miterlimit="10" stroke-dasharray="1,3"/><path fill="none" stroke="rgb(192,192,192)" paint-order="fill stroke markers" d=" M 47.5 45.5 L 813.5 45.5 M 47.5 45.5 L 813.5 45.5 M 47.5 148.5 L 813.5 148.5 M 47.5 252.5 L 813.5 252.5 M 47.5 355.5 L 813.5 355.5 M 47.5 458.5 L 813.5 458.5" stroke-opacity="1" stroke-linejoin="round" stroke-miterlimit="10" stroke-dasharray="1,3"/><path fill="none" stroke="rgb(192,192,192)" paint-order="fill stroke markers" d="" stroke-opacity="0.23529411764705882" stroke-linejoin="round" stroke-miterlimit="10" stroke-dasharray="1,3"/><path fill="none" stroke="rgb(0,0,0)" paint-order="fill stroke markers" d=" M 47.5 2.5 L 47.5 561.5" stroke-opacity="1" stroke-miterlimit="10"/><path fill="none" stroke="rgb(0,0,0)" paint-order="fill stroke markers" d=" M 47.5 1.5 L 41.5 7.5" stroke-opacity="1" stroke-miterlimit="10"/><path fill="none" stroke="rgb(0,0,0)" paint-order="fill stroke markers" d=" M 47.5 1.5 L 53.5 7.5" stroke-opacity="1" stroke-miterlimit="10"/><path fill="none" stroke="rgb(0,0,0)" paint-order="fill stroke markers" d=" M 47.5 561.5 L 811.5 561.5" stroke-opacity="1" stroke-miterlimit="10"/><path fill="none" stroke="rgb(0,0,0)" paint-order="fill stroke markers" d=" M 812.5 561.5 L 806.5 555.5" stroke-opacity="1" stroke-miterlimit="10"/><path fill="none" stroke="rgb(0,0,0)" paint-order="fill stroke markers" d=" M 812.5 561.5 L 806.5 567.5" stroke-opacity="1" stroke-miterlimit="10"/><text fill="rgb(0,0,0)" stroke="none" font-family="geogebra-sans-serif, sans-serif" font-size="18px" font-style="normal" font-weight="normal" text-decoration="normal" x="213" y="583" text-anchor="start" dominant-baseline="alphabetic" fill-opacity="1">1</text><text fill="none" stroke="rgb(255,255,255)" font-family="geogebra-sans-serif, sans-serif" font-size="18px" font-style="normal" font-weight="normal" text-decoration="normal" x="213" y="583" text-anchor="start" dominant-baseline="alphabetic" stroke-opacity="1" stroke-linejoin="bevel" stroke-miterlimit="10" stroke-width="3">1</text><text fill="rgb(0,0,0)" stroke="none" font-family="geogebra-sans-serif, sans-serif" font-size="18px" font-style="normal" font-weight="normal" text-decoration="normal" x="213" y="583" text-anchor="start" dominant-baseline="alphabetic" fill-opacity="1">1</text><text fill="rgb(0,0,0)" stroke="none" font-family="geogebra-sans-serif, sans-serif" font-size="18px" font-style="normal" font-weight="normal" text-decoration="normal" x="383" y="583" text-anchor="start" dominant-baseline="alphabetic" fill-opacity="1">2</text><text fill="none" stroke="rgb(255,255,255)" font-family="geogebra-sans-serif, sans-serif" font-size="18px" font-style="normal" font-weight="normal" text-decoration="normal" x="383" y="583" text-anchor="start" dominant-baseline="alphabetic" stroke-opacity="1" stroke-linejoin="bevel" stroke-miterlimit="10" stroke-width="3">2</text><text fill="rgb(0,0,0)" stroke="none" font-family="geogebra-sans-serif, sans-serif" font-size="18px" font-style="normal" font-weight="normal" text-decoration="normal" x="383" y="583" text-anchor="start" dominant-baseline="alphabetic" fill-opacity="1">2</text><text fill="rgb(0,0,0)" stroke="none" font-family="geogebra-sans-serif, sans-serif" font-size="18px" font-style="normal" font-weight="normal" text-decoration="normal" x="553" y="583" text-anchor="start" dominant-baseline="alphabetic" fill-opacity="1">3</text><text fill="none" stroke="rgb(255,255,255)" font-family="geogebra-sans-serif, sans-serif" font-size="18px" font-style="normal" font-weight="normal" text-decoration="normal" x="553" y="583" text-anchor="start" dominant-baseline="alphabetic" stroke-opacity="1" stroke-linejoin="bevel" stroke-miterlimit="10" stroke-width="3">3</text><text fill="rgb(0,0,0)" stroke="none" font-family="geogebra-sans-serif, sans-serif" font-size="18px" font-style="normal" font-weight="normal" text-decoration="normal" x="553" y="583" text-anchor="start" dominant-baseline="alphabetic" fill-opacity="1">3</text><text fill="rgb(0,0,0)" stroke="none" font-family="geogebra-sans-serif, sans-serif" font-size="18px" font-style="normal" font-weight="normal" text-decoration="normal" x="723" y="583" text-anchor="start" dominant-baseline="alphabetic" fill-opacity="1">4</text><text fill="none" stroke="rgb(255,255,255)" font-family="geogebra-sans-serif, sans-serif" font-size="18px" font-style="normal" font-weight="normal" text-decoration="normal" x="723" y="583" text-anchor="start" dominant-baseline="alphabetic" stroke-opacity="1" stroke-linejoin="bevel" stroke-miterlimit="10" stroke-width="3">4</text><text fill="rgb(0,0,0)" stroke="none" font-family="geogebra-sans-serif, sans-serif" font-size="18px" font-style="normal" font-weight="normal" text-decoration="normal" x="723" y="583" text-anchor="start" dominant-baseline="alphabetic" fill-opacity="1">4</text><text fill="rgb(0,0,0)" stroke="none" font-family="geogebra-sans-serif, sans-serif" font-size="18px" font-style="normal" font-weight="normal" text-decoration="normal" x="29" y="466" text-anchor="start" dominant-baseline="alphabetic" fill-opacity="1">5</text><text fill="none" stroke="rgb(255,255,255)" font-family="geogebra-sans-serif, sans-serif" font-size="18px" font-style="normal" font-weight="normal" text-decoration="normal" x="29" y="466" text-anchor="start" dominant-baseline="alphabetic" stroke-opacity="1" stroke-linejoin="bevel" stroke-miterlimit="10" stroke-width="3">5</text><text fill="rgb(0,0,0)" stroke="none" font-family="geogebra-sans-serif, sans-serif" font-size="18px" font-style="normal" font-weight="normal" text-decoration="normal" x="29" y="466" text-anchor="start" dominant-baseline="alphabetic" fill-opacity="1">5</text><text fill="rgb(0,0,0)" stroke="none" font-family="geogebra-sans-serif, sans-serif" font-size="18px" font-style="normal" font-weight="normal" text-decoration="normal" x="19" y="363" text-anchor="start" dominant-baseline="alphabetic" fill-opacity="1">10</text><text fill="none" stroke="rgb(255,255,255)" font-family="geogebra-sans-serif, sans-serif" font-size="18px" font-style="normal" font-weight="normal" text-decoration="normal" x="19" y="363" text-anchor="start" dominant-baseline="alphabetic" stroke-opacity="1" stroke-linejoin="bevel" stroke-miterlimit="10" stroke-width="3">10</text><text fill="rgb(0,0,0)" stroke="none" font-family="geogebra-sans-serif, sans-serif" font-size="18px" font-style="normal" font-weight="normal" text-decoration="normal" x="19" y="363" text-anchor="start" dominant-baseline="alphabetic" fill-opacity="1">10</text><text fill="rgb(0,0,0)" stroke="none" font-family="geogebra-sans-serif, sans-serif" font-size="18px" font-style="normal" font-weight="normal" text-decoration="normal" x="19" y="260" text-anchor="start" dominant-baseline="alphabetic" fill-opacity="1">15</text><text fill="none" stroke="rgb(255,255,255)" font-family="geogebra-sans-serif, sans-serif" font-size="18px" font-style="normal" font-weight="normal" text-decoration="normal" x="19" y="260" text-anchor="start" dominant-baseline="alphabetic" stroke-opacity="1" stroke-linejoin="bevel" stroke-miterlimit="10" stroke-width="3">15</text><text fill="rgb(0,0,0)" stroke="none" font-family="geogebra-sans-serif, sans-serif" font-size="18px" font-style="normal" font-weight="normal" text-decoration="normal" x="19" y="260" text-anchor="start" dominant-baseline="alphabetic" fill-opacity="1">15</text><text fill="rgb(0,0,0)" stroke="none" font-family="geogebra-sans-serif, sans-serif" font-size="18px" font-style="normal" font-weight="normal" text-decoration="normal" x="19" y="156" text-anchor="start" dominant-baseline="alphabetic" fill-opacity="1">20</text><text fill="none" stroke="rgb(255,255,255)" font-family="geogebra-sans-serif, sans-serif" font-size="18px" font-style="normal" font-weight="normal" text-decoration="normal" x="19" y="156" text-anchor="start" dominant-baseline="alphabetic" stroke-opacity="1" stroke-linejoin="bevel" stroke-miterlimit="10" stroke-width="3">20</text><text fill="rgb(0,0,0)" stroke="none" font-family="geogebra-sans-serif, sans-serif" font-size="18px" font-style="normal" font-weight="normal" text-decoration="normal" x="19" y="156" text-anchor="start" dominant-baseline="alphabetic" fill-opacity="1">20</text><text fill="rgb(0,0,0)" stroke="none" font-family="geogebra-sans-serif, sans-serif" font-size="18px" font-style="normal" font-weight="normal" text-decoration="normal" x="19" y="53" text-anchor="start" dominant-baseline="alphabetic" fill-opacity="1">25</text><text fill="none" stroke="rgb(255,255,255)" font-family="geogebra-sans-serif, sans-serif" font-size="18px" font-style="normal" font-weight="normal" text-decoration="normal" x="19" y="53" text-anchor="start" dominant-baseline="alphabetic" stroke-opacity="1" stroke-linejoin="bevel" stroke-miterlimit="10" stroke-width="3">25</text><text fill="rgb(0,0,0)" stroke="none" font-family="geogebra-sans-serif, sans-serif" font-size="18px" font-style="normal" font-weight="normal" text-decoration="normal" x="19" y="53" text-anchor="start" dominant-baseline="alphabetic" fill-opacity="1">25</text><text fill="rgb(0,0,0)" stroke="none" font-family="geogebra-sans-serif, sans-serif" font-size="18px" font-style="normal" font-weight="normal" text-decoration="normal" x="29" y="583" text-anchor="start" dominant-baseline="alphabetic" fill-opacity="1">0</text><text fill="none" stroke="rgb(255,255,255)" font-family="geogebra-sans-serif, sans-serif" font-size="18px" font-style="normal" font-weight="normal" text-decoration="normal" x="29" y="583" text-anchor="start" dominant-baseline="alphabetic" stroke-opacity="1" stroke-linejoin="bevel" stroke-miterlimit="10" stroke-width="3">0</text><text fill="rgb(0,0,0)" stroke="none" font-family="geogebra-sans-serif, sans-serif" font-size="18px" font-style="normal" font-weight="normal" text-decoration="normal" x="29" y="583" text-anchor="start" dominant-baseline="alphabetic" fill-opacity="1">0</text><path fill="none" stroke="rgb(211,47,47)" paint-order="fill stroke markers" d=" M 47.03758302208919 541.0715240775634 L 47.63671874999999 541.1132577802033 M 47.63671874999999 541.1132577802033 L 50.812499999999986 541.3262012767868 M 50.812499999999986 541.3262012767868 L 53.988281249999986 541.5257268689367 L 57.164062499999986 541.7124748040811 L 60.339843749999986 541.8870368082369 L 63.515624999999986 542.04996020141 L 66.69140624999999 542.2017515938843 L 69.86718749999999 542.342880211834 L 73.04296874999999 542.4737808944066 L 76.21874999999999 542.5948567990291 L 79.39453124999999 542.7064818470662 L 82.57031249999999 542.8090029379724 L 85.74609374999999 542.9027419566444 L 88.92187499999999 542.9879975957056 L 92.09765624999999 543.0650470118784 L 95.27343749999999 543.1341473333584 L 98.44921874999999 543.1955370331564 L 101.62499999999997 543.2494371816703 M 101.62499999999997 543.2494371816703 L 104.80078124999999 543.2960525902641 L 107.97656249999997 543.3355728563248 L 111.15234374999997 543.3681733191252 L 114.32812499999999 543.394015934816 L 117.50390624999999 543.4132500779813 L 120.67968749999999 543.4260132764117 L 123.85546874999997 543.4324318850574 L 127.03124999999997 543.4326217045098 L 130.20703125 543.4266885488191 L 133.38281249999997 543.4147287669718 L 136.55859374999997 543.396829721922 L 139.73437499999997 543.3730702306887 L 142.91015625 543.3435209686907 L 146.08593749999994 543.308244841183 L 149.26171875 543.2672973243868 L 152.43749999999997 543.2207267786621 L 155.61328125 543.168574735848 L 158.78906249999997 543.110876162702 L 161.96484374999997 543.0476597021899 L 165.14062499999997 542.9789478942188 L 168.31640624999997 542.9047573772583 L 171.4921875 542.8250990721693 L 174.66796874999994 542.7399783494359 L 177.84374999999997 542.6493951808931 L 181.01953124999997 542.5533442769438 L 184.1953125 542.4518152101707 L 187.37109374999997 542.3447925261675 L 190.54687499999994 542.2322558423432 L 193.72265624999997 542.114179935384 L 196.89843749999997 541.9905348179963 L 200.07421874999997 541.8612858055028 L 203.24999999999997 541.726393572805 M 203.24999999999997 541.726393572805 L 206.42578124999997 541.5858142021877 L 209.60156249999997 541.4394992223902 L 212.77734374999997 541.287395639334 L 215.95312499999997 541.1294459588604 L 219.12890624999994 540.9655882017936 L 222.30468749999997 540.7957559116195 L 225.48046874999997 540.6198781550377 L 228.65624999999997 540.4378795156184 L 231.83203124999997 540.2496800807737 L 235.00781249999994 540.0551954222229 L 238.18359374999997 539.8543365701206 L 241.35937499999994 539.6470099809841 L 244.53515624999997 539.4331174995482 L 247.71093749999994 539.2125563146512 L 250.88671874999994 538.985218909241 L 254.06249999999997 538.7509930045757 L 257.23828125 538.5097614986776 L 260.4140625 538.2614023990828 L 263.58984374999994 538.0057887499199 L 266.765625 537.7427885533338 L 269.94140624999994 537.4722646852603 L 273.1171875 537.194074805548 L 276.29296874999994 536.9080712624057 L 279.46874999999994 536.6141009911493 L 282.64453125 536.3120054072094 L 285.8203125 536.0016202933479 L 288.99609375 535.6827756810243 L 292.17187499999994 535.355295725844 L 295.34765624999994 535.0189985770057 L 298.52343749999994 534.6736962406617 L 301.69921875 534.31919443709 L 304.875 533.9552924515734 L 308.0507812499999 533.5817829788645 L 311.2265625 533.1984519611125 L 314.40234375 532.8050784191157 L 317.578125 532.4014342767525 L 320.75390625 531.9872841784392 L 323.9296874999999 531.5623852994477 L 327.10546875 531.1264871489116 L 330.28125 530.6793313653367 L 333.45703125 530.2206515044226 L 336.6328124999999 529.7501728189939 L 339.80859375 529.2676120308271 L 342.984375 528.7726770941506 L 346.16015625 528.2650669505847 L 349.3359375 527.7444712752766 L 352.5117187499999 527.2105702139769 L 355.6875 526.6630341107902 L 358.86328125 526.1015232263239 L 362.0390625 525.5256874459432 L 365.2148437499999 524.9351659778351 L 368.390625 524.3295870405651 L 371.56640625 523.7085675398006 L 374.7421875 523.0717127338635 L 377.91796875 522.4186158877567 L 381.0937499999999 521.7488579153014 L 384.26953125 521.0620070090008 L 387.4453124999999 520.3576182572369 L 390.62109375 519.6352332483889 L 393.7968749999999 518.8943796614476 L 396.97265625 518.1345708426811 L 400.1484375 517.3553053678953 L 403.32421875 516.5560665898092 L 406.5 515.7363221700537 M 406.5 515.7363221700537 L 409.6757812499999 514.895523595277 L 412.8515624999999 514.0331056768297 L 416.02734375 513.1484860334699 L 419.203125 512.241064556524 L 422.3789062499999 511.31022285690176 L 425.5546874999999 510.3553236933564 L 428.73046875 509.3757103813456 L 431.90625 508.3707061818346 L 435.08203125 507.33961366935387 L 438.2578124999999 506.2817140785992 L 441.4335937499999 505.19626662883564 L 444.609375 504.08250782534157 L 447.78515625 502.9396507370975 L 450.9609374999999 501.7668842498982 L 454.1367187499999 500.5633722940348 L 457.3125 499.32825304566245 L 460.48828125 498.0606381009371 L 463.6640625 496.7596116219705 L 466.8398437499999 495.4242294536179 L 470.0156249999999 494.05351821007696 L 473.19140625 492.6464743302378 L 476.3671875 491.2020631006869 L 479.5429687499999 489.7192176452244 L 482.7187499999999 488.19683787971474 L 485.89453125 486.6337894310468 L 489.0703125 485.0289025189324 L 492.24609375 483.38097079922716 L 495.4218749999999 481.68875016740907 L 498.5976562499999 479.9509575207986 L 501.7734374999999 478.1662694780514 L 504.94921875 476.3333210544026 L 508.1249999999999 474.4507042910824 L 511.3007812499999 472.51696683726635 L 514.4765625 470.5306104828611 L 517.65234375 468.49008964036517 L 520.828125 466.39380977397644 L 524.0039062499999 464.240125774053 L 527.1796874999999 462.02734027496024 L 530.3554687499999 459.7537019142665 L 533.53125 457.4174035311713 L 536.7070312499999 455.0165803019733 L 539.8828124999999 452.5493078103007 L 543.05859375 450.0136000497439 L 546.234375 447.40740735644056 L 549.41015625 444.72861426907104 L 552.5859374999999 441.975037313628 L 555.7617187499999 439.144422710224 L 558.9374999999999 436.2344439990983 L 562.11328125 433.242699582877 L 565.2890625 430.16671018203084 L 568.46484375 427.00391620035623 L 571.640625 423.75167499719294 L 574.81640625 420.40725806295586 L 577.9921875 416.9678480944417 L 581.16796875 413.4305359662276 L 584.34375 409.7923175943441 L 587.5195312499999 406.05009068825984 L 590.6953124999999 402.20065138706104 L 593.87109375 398.24069077555964 L 597.046875 394.16679127589236 L 600.22265625 389.9754229100146 L 603.3984375 385.66293942830555 L 606.57421875 381.2255742993321 L 609.75 376.6594365556175 M 609.75 376.6594365556175 L 612.92578125 371.96050649007327 L 616.1015624999999 367.12463119754057 L 619.27734375 362.1475199556836 L 622.453125 357.0247394392461 L 625.62890625 351.75170876146035 L 628.8046874999999 346.32369433616157 L 631.98046875 340.73580455389623 L 635.15625 334.9829842650829 L 638.33203125 329.0600090629843 L 641.5078125 322.9614793589976 L 644.6835937499999 316.6818142424637 L 647.859375 310.215245116903 L 651.03515625 303.5558091042696 L 654.2109375 296.69734220848665 L 657.3867187499999 289.63347222920135 L 660.5625 282.3576114163205 L 663.73828125 274.8629488555568 L 666.9140625 267.14244257479584 L 670.08984375 259.1888113607355 L 673.2656249999999 250.9945262748118 L 676.44140625 242.55180185701073 L 679.6171875 233.85258700571745 L 682.79296875 224.8885555212857 L 685.9687499999999 215.6510963005482 L 689.14453125 206.13130316895564 L 692.3203125 196.31996433655502 L 693.908203125 191.30200034879925 L 695.49609375 186.20755146342668 L 697.083984375 181.03537531659265 L 698.671875 175.78420831968435 L 700.2597656249999 170.45276528167494 L 701.8476562499999 165.03973902452367 L 703.435546875 159.54379999148784 L 705.0234374999999 153.9635958482084 L 706.611328125 148.29775107643383 L 708.19921875 142.54486656025028 L 709.787109375 136.70351916465893 L 711.375 130.77226130637428 M 711.375 130.77226130637428 L 712.962890625 124.7496205166774 L 714.5507812499999 118.63409899618426 L 716.1386718749999 112.42417316137227 L 717.7265624999999 106.11829318270799 L 719.3144531249999 99.71488251421232 L 720.9023437499999 93.21233741430257 L 722.4902343749999 86.6090264577486 L 724.078125 79.90329003856505 L 725.666015625 73.09343986367509 L 727.25390625 66.17775843716015 L 728.8417968749999 59.15449853492197 L 730.4296874999999 52.02188266957398 L 732.0175781249999 44.778102545371894 L 733.6054687499999 37.421318502988925 L 735.1933593749999 29.94965895395285 L 736.7812499999999 22.361219804530037 M 736.7812499999999 22.361219804530037 L 738.369140625 14.65406386887355 L 739.9570312499999 6.8262202712089675 L 741.5449218749998 -1.1243161631377916 L 743.1328124999999 -9.199585528091234 M 743.1328124999999 -9.199585528091234" stroke-opacity="0.8" stroke-linecap="round" stroke-linejoin="round" stroke-miterlimit="10" stroke-width="2.5"/><text fill="rgb(211,47,47)" stroke="none" font-family="geogebra-sans-serif, sans-serif" font-size="24px" font-style="normal" font-weight="normal" text-decoration="normal" x="114" y="523" text-anchor="start" dominant-baseline="alphabetic" fill-opacity="1">f(x)</text><text fill="none" stroke="rgb(255,255,255)" font-family="geogebra-sans-serif, sans-serif" font-size="24px" font-style="normal" font-weight="normal" text-decoration="normal" x="114" y="523" text-anchor="start" dominant-baseline="alphabetic" stroke-opacity="1" stroke-linecap="round" stroke-linejoin="bevel" stroke-miterlimit="10" stroke-width="3">f(x)</text><text fill="rgb(211,47,47)" stroke="none" font-family="geogebra-sans-serif, sans-serif" font-size="24px" font-style="normal" font-weight="normal" text-decoration="normal" x="114" y="523" text-anchor="start" dominant-baseline="alphabetic" fill-opacity="1">f(x)</text><path fill="rgb(21,101,192)" stroke="none" paint-order="stroke fill markers" d=" M 222.0889486799792 541.0715239583944 C 222.0889486799792 543.8329477075484 219.8503724291332 546.0715239583944 217.0889486799792 546.0715239583944 C 214.32752493082523 546.0715239583944 212.0889486799792 543.8329477075484 212.0889486799792 541.0715239583944 C 212.0889486799792 538.3101002092404 214.32752493082523 536.0715239583944 217.0889486799792 536.0715239583944 C 219.8503724291332 536.0715239583944 222.0889486799792 538.3101002092404 222.0889486799792 541.0715239583944 Z" fill-opacity="1"/><path fill="none" stroke="rgb(0,0,0)" paint-order="fill stroke markers" d=" M 222.0889486799792 541.0715239583944 C 222.0889486799792 543.8329477075484 219.8503724291332 546.0715239583944 217.0889486799792 546.0715239583944 C 214.32752493082523 546.0715239583944 212.0889486799792 543.8329477075484 212.0889486799792 541.0715239583944 C 212.0889486799792 538.3101002092404 214.32752493082523 536.0715239583944 217.0889486799792 536.0715239583944 C 219.8503724291332 536.0715239583944 222.0889486799792 538.3101002092404 222.0889486799792 541.0715239583944 Z" stroke-opacity="1" stroke-linecap="round" stroke-linejoin="round" stroke-miterlimit="10"/><path fill="rgb(21,101,192)" stroke="none" paint-order="stroke fill markers" d=" M 392.14031603838293 520.4260403157421 C 392.14031603838293 523.1874640648961 389.9017397875369 525.4260403157421 387.14031603838293 525.4260403157421 C 384.378892289229 525.4260403157421 382.14031603838293 523.1874640648961 382.14031603838293 520.4260403157421 C 382.14031603838293 517.664616566588 384.378892289229 515.4260403157421 387.14031603838293 515.4260403157421 C 389.9017397875369 515.4260403157421 392.14031603838293 517.664616566588 392.14031603838293 520.4260403157421 Z" fill-opacity="1"/><path fill="none" stroke="rgb(0,0,0)" paint-order="fill stroke markers" d=" M 392.14031603838293 520.4260403157421 C 392.14031603838293 523.1874640648961 389.9017397875369 525.4260403157421 387.14031603838293 525.4260403157421 C 384.378892289229 525.4260403157421 382.14031603838293 523.1874640648961 382.14031603838293 520.4260403157421 C 382.14031603838293 517.664616566588 384.378892289229 515.4260403157421 387.14031603838293 515.4260403157421 C 389.9017397875369 515.4260403157421 392.14031603838293 517.664616566588 392.14031603838293 520.4260403157421 Z" stroke-opacity="1" stroke-linecap="round" stroke-linejoin="round" stroke-miterlimit="10"/><path fill="rgb(21,101,192)" stroke="none" paint-order="stroke fill markers" d=" M 562.1916833967866 437.8441057451329 C 562.1916833967866 440.6055294942868 559.9531071459406 442.8441057451329 557.1916833967866 442.8441057451329 C 554.4302596476326 442.8441057451329 552.1916833967866 440.6055294942868 552.1916833967866 437.8441057451329 C 552.1916833967866 435.08268199597893 554.4302596476326 432.8441057451329 557.1916833967866 432.8441057451329 C 559.9531071459406 432.8441057451329 562.1916833967866 435.08268199597893 562.1916833967866 437.8441057451329 Z" fill-opacity="1"/><path fill="none" stroke="rgb(0,0,0)" paint-order="fill stroke markers" d=" M 562.1916833967866 437.8441057451329 C 562.1916833967866 440.6055294942868 559.9531071459406 442.8441057451329 557.1916833967866 442.8441057451329 C 554.4302596476326 442.8441057451329 552.1916833967866 440.6055294942868 552.1916833967866 437.8441057451329 C 552.1916833967866 435.08268199597893 554.4302596476326 432.8441057451329 557.1916833967866 432.8441057451329 C 559.9531071459406 432.8441057451329 562.1916833967866 435.08268199597893 562.1916833967866 437.8441057451329 Z" stroke-opacity="1" stroke-linecap="round" stroke-linejoin="round" stroke-miterlimit="10"/><path fill="rgb(21,101,192)" stroke="none" paint-order="stroke fill markers" d=" M 732.2430507551903 66.2254001773913 C 732.2430507551903 68.98682392654526 730.0044745043443 71.2254001773913 727.2430507551903 71.2254001773913 C 724.4816270060363 71.2254001773913 722.2430507551903 68.98682392654526 722.2430507551903 66.2254001773913 C 722.2430507551903 63.46397642823732 724.4816270060363 61.22540017739129 727.2430507551903 61.22540017739129 C 730.0044745043443 61.22540017739129 732.2430507551903 63.46397642823732 732.2430507551903 66.2254001773913 Z" fill-opacity="1"/><path fill="none" stroke="rgb(0,0,0)" paint-order="fill stroke markers" d=" M 732.2430507551903 66.2254001773913 C 732.2430507551903 68.98682392654526 730.0044745043443 71.2254001773913 727.2430507551903 71.2254001773913 C 724.4816270060363 71.2254001773913 722.2430507551903 68.98682392654526 722.2430507551903 66.2254001773913 C 722.2430507551903 63.46397642823732 724.4816270060363 61.22540017739129 727.2430507551903 61.22540017739129 C 730.0044745043443 61.22540017739129 732.2430507551903 63.46397642823732 732.2430507551903 66.2254001773913 Z" stroke-opacity="1" stroke-linecap="round" stroke-linejoin="round" stroke-miterlimit="10"/></g></g></svg>